# xmcd CD database file
#
# Track frame offsets:
#	150
#	17337
#	32640
#	45615
#	58660
#	72457
#	86617
#	101195
#	116387
#	131502
#	145862
#	160075
#	173700
#	186402
#	198250
#	212015
#
# Disc length: 2959 seconds
#
# Revision: 0
# Processed by: cddbd v1.5.2PL0 Copyright (c) Steve Scherf et al.
# Submitted via: CDex 1.51
#
DISCID=dc0b8d10
DTITLE=Billie Holliday - Me, myself and I - CD2 Romantic Lady Day
DYEAR=2006
DGENRE=Jazz
TTITLE0=You Don't Know What Live Is
TTITLE1=I'm Fool To Want Yoy
TTITLE2=That Ole Devil Called Love
TTITLE3=For All We Know
TTITLE4=Time On My Hands (You In My Arms)
TTITLE5=This Year's Kissies
TTITLE6=Solitude
TTITLE7=Don't Explain
TTITLE8=You're My Thrill
TTITLE9=Gloomy Sunday
TTITLE10=Until The Real Thing Comes Along
TTITLE11=Some Other Sping
TTITLE12=Them There Eyes
TTITLE13=Gost Of Yesterday
TTITLE14=Easy Living
TTITLE15=Trav'lin' All Alone
EXTD=YEAR: 2006
EXTT0=
EXTT1=
EXTT2=
EXTT3=
EXTT4=
EXTT5=
EXTT6=
EXTT7=
EXTT8=
EXTT9=
EXTT10=
EXTT11=
EXTT12=
EXTT13=
EXTT14=
EXTT15=
PLAYORDER=
